<?xml version="1.0" encoding="utf-8"?>
<svg version="1.1" xmlns:xlink="http://www.w3.org/1999/xlink" width="24px" height="15px" xmlns="http://www.w3.org/2000/svg">
  <g transform="matrix(1 0 0 1 -1850 -171 )">
    <path d="M 11.56640625 10.8349609375  C 11.85546875 10.5582682291667  12 10.2115885416667  12 9.794921875  C 12 9.37825520833333  11.96484375 8.99576822916667  11.89453125 8.6474609375  C 11.82421875 8.29915364583333  11.708984375 7.9638671875  11.548828125 7.6416015625  C 11.388671875 7.3193359375  11.15234375 7.0654296875  10.83984375 6.8798828125  C 10.52734375 6.6943359375  10.1484375 6.6015625  9.703125 6.6015625  C 9.65625 6.62760416666667  9.5390625 6.68619791666667  9.3515625 6.77734375  C 9.1640625 6.86848958333333  9.017578125 6.9384765625  8.912109375 6.9873046875  C 8.806640625 7.0361328125  8.66796875 7.09309895833333  8.49609375 7.158203125  C 8.32421875 7.22330729166667  8.15625 7.2705078125  7.9921875 7.2998046875  C 7.828125 7.3291015625  7.6640625 7.34375  7.5 7.34375  C 7.3359375 7.34375  7.171875 7.3291015625  7.0078125 7.2998046875  C 6.84375 7.2705078125  6.67578125 7.22330729166667  6.50390625 7.158203125  C 6.33203125 7.09309895833333  6.193359375 7.0361328125  6.087890625 6.9873046875  C 5.982421875 6.9384765625  5.8359375 6.86848958333333  5.6484375 6.77734375  C 5.4609375 6.68619791666667  5.34375 6.62760416666667  5.296875 6.6015625  C 4.8515625 6.6015625  4.47265625 6.6943359375  4.16015625 6.8798828125  C 3.84765625 7.0654296875  3.611328125 7.3193359375  3.451171875 7.6416015625  C 3.291015625 7.9638671875  3.17578125 8.29915364583333  3.10546875 8.6474609375  C 3.03515625 8.99576822916667  3 9.37825520833333  3 9.794921875  C 3 10.2115885416667  3.14453125 10.5582682291667  3.43359375 10.8349609375  C 3.72265625 11.1116536458333  4.078125 11.25  4.5 11.25  L 10.5 11.25  C 10.921875 11.25  11.27734375 11.1116536458333  11.56640625 10.8349609375  Z M 9.380859375 6.2841796875  C 9.900390625 5.85123697916667  10.16015625 5.32877604166667  10.16015625 4.716796875  C 10.16015625 4.10481770833333  9.900390625 3.58235677083333  9.380859375 3.1494140625  C 8.861328125 2.71647135416667  8.234375 2.5  7.5 2.5  C 6.765625 2.5  6.138671875 2.71647135416667  5.619140625 3.1494140625  C 5.099609375 3.58235677083333  4.83984375 4.10481770833333  4.83984375 4.716796875  C 4.83984375 5.32877604166667  5.099609375 5.85123697916667  5.619140625 6.2841796875  C 6.138671875 6.71712239583333  6.765625 6.93359375  7.5 6.93359375  C 8.234375 6.93359375  8.861328125 6.71712239583333  9.380859375 6.2841796875  Z M 20.89453125 9.912109375  C 20.96484375 9.853515625  21 9.77864583333333  21 9.6875  L 21 9.0625  C 21 8.97135416666666  20.96484375 8.896484375  20.89453125 8.837890625  C 20.82421875 8.779296875  20.734375 8.75  20.625 8.75  L 13.875 8.75  C 13.765625 8.75  13.67578125 8.779296875  13.60546875 8.837890625  C 13.53515625 8.896484375  13.5 8.97135416666666  13.5 9.0625  L 13.5 9.6875  C 13.5 9.77864583333333  13.53515625 9.853515625  13.60546875 9.912109375  C 13.67578125 9.970703125  13.765625 10  13.875 10  L 20.625 10  C 20.734375 10  20.82421875 9.970703125  20.89453125 9.912109375  Z M 20.876953125 7.3974609375  C 20.958984375 7.3291015625  21 7.24609375  21 7.1484375  L 21 6.6015625  C 21 6.50390625  20.958984375 6.4208984375  20.876953125 6.3525390625  C 20.794921875 6.2841796875  20.6953125 6.25  20.578125 6.25  L 13.921875 6.25  C 13.8046875 6.25  13.705078125 6.2841796875  13.623046875 6.3525390625  C 13.541015625 6.4208984375  13.5 6.50390625  13.5 6.6015625  L 13.5 7.1484375  C 13.5 7.24609375  13.541015625 7.3291015625  13.623046875 7.3974609375  C 13.705078125 7.4658203125  13.8046875 7.5  13.921875 7.5  L 20.578125 7.5  C 20.6953125 7.5  20.794921875 7.4658203125  20.876953125 7.3974609375  Z M 20.89453125 4.912109375  C 20.96484375 4.853515625  21 4.77864583333333  21 4.6875  L 21 4.0625  C 21 3.97135416666666  20.96484375 3.896484375  20.89453125 3.837890625  C 20.82421875 3.779296875  20.734375 3.75  20.625 3.75  L 13.875 3.75  C 13.765625 3.75  13.67578125 3.779296875  13.60546875 3.837890625  C 13.53515625 3.896484375  13.5 3.97135416666666  13.5 4.0625  L 13.5 4.6875  C 13.5 4.77864583333333  13.53515625 4.853515625  13.60546875 4.912109375  C 13.67578125 4.970703125  13.765625 5  13.875 5  L 20.625 5  C 20.734375 5  20.82421875 4.970703125  20.89453125 4.912109375  Z M 23.44921875 0.458984375000001  C 23.81640625 0.764973958333333  24 1.1328125  24 1.5625  L 24 13.4375  C 24 13.8671875  23.81640625 14.2350260416667  23.44921875 14.541015625  C 23.08203125 14.8470052083333  22.640625 15  22.125 15  L 18 15  L 18 14.0625  C 18 13.9713541666667  17.96484375 13.896484375  17.89453125 13.837890625  C 17.82421875 13.779296875  17.734375 13.75  17.625 13.75  L 16.875 13.75  C 16.765625 13.75  16.67578125 13.779296875  16.60546875 13.837890625  C 16.53515625 13.896484375  16.5 13.9713541666667  16.5 14.0625  L 16.5 15  L 7.5 15  L 7.5 14.0625  C 7.5 13.9713541666667  7.46484375 13.896484375  7.39453125 13.837890625  C 7.32421875 13.779296875  7.234375 13.75  7.125 13.75  L 6.375 13.75  C 6.265625 13.75  6.17578125 13.779296875  6.10546875 13.837890625  C 6.03515625 13.896484375  6 13.9713541666667  6 14.0625  L 6 15  L 1.875 15  C 1.359375 15  0.91796875 14.8470052083333  0.55078125 14.541015625  C 0.18359375 14.2350260416667  0 13.8671875  0 13.4375  L 0 1.5625  C 0 1.1328125  0.18359375 0.764973958333333  0.55078125 0.458984375000001  C 0.91796875 0.152994791666665  1.359375 0  1.875 0  L 22.125 0  C 22.640625 0  23.08203125 0.152994791666665  23.44921875 0.458984375000001  Z " fill-rule="nonzero" fill="#b02463" stroke="none" transform="matrix(1 0 0 1 1850 171 )" />
  </g>
</svg>