<?xml version="1.0" encoding="utf-8"?>
<svg version="1.1" xmlns:xlink="http://www.w3.org/1999/xlink" width="70px" height="5px" xmlns="http://www.w3.org/2000/svg">
  <g transform="matrix(1 0 0 1 -1611 -45 )">
    <path d="M 68.1640625 0.458984375  C 69.3880208333333 0.764973958333333  70 1.1328125  70 1.5625  L 70 3.4375  C 70 3.8671875  69.3880208333333 4.23502604166667  68.1640625 4.541015625  C 66.9401041666667 4.84700520833333  65.46875 5  63.75 5  L 6.25 5  C 4.53125 5  3.05989583333333 4.84700520833333  1.8359375 4.541015625  C 0.611979166666667 4.23502604166667  0 3.8671875  0 3.4375  L 0 1.5625  C 0 1.1328125  0.611979166666667 0.764973958333333  1.8359375 0.458984375  C 3.05989583333333 0.152994791666667  4.53125 0  6.25 0  L 63.75 0  C 65.46875 0  66.9401041666667 0.152994791666667  68.1640625 0.458984375  Z " fill-rule="nonzero" fill="#b02463" stroke="none" transform="matrix(1 0 0 1 1611 45 )" />
  </g>
</svg>