<?xml version="1.0" encoding="utf-8"?>
<svg version="1.1" xmlns:xlink="http://www.w3.org/1999/xlink" width="16px" height="21px" xmlns="http://www.w3.org/2000/svg">
  <g transform="matrix(1 0 0 1 -1621 -51 )">
    <path d="M 5.09090909090909 11.3076923076923  L 6.54545454545455 19.3846153846154  L 7.63636363636364 13.7307692307692  L 6.54545454545455 12.1153846153846  L 5.09090909090909 11.3076923076923  Z M 8.36363636363636 13.7307692307692  L 9.45454545454546 19.3846153846154  L 10.9090909090909 11.3076923076923  L 9.45454545454546 12.1153846153846  L 8.36363636363636 13.7307692307692  Z M 11.2272727272727 6.97896634615384  C 11.2424242424242 6.90324519230769  11.2575757575758 6.78966346153846  11.2727272727273 6.63822115384616  C 11.2575757575758 6.60456730769231  11.2424242424242 6.57932692307692  11.2272727272727 6.5625  C 11.1515151515152 6.49519230769231  10.7878787878788 6.46153846153846  10.1363636363636 6.46153846153846  C 9.60606060606061 6.46153846153846  8.97348484848485 6.54146634615384  8.23863636363636 6.70132211538461  C 8.18560606060606 6.71814903846154  8.10606060606061 6.7265625  8 6.7265625  C 7.89393939393939 6.7265625  7.81439393939394 6.71814903846154  7.76136363636364 6.70132211538461  C 7.02651515151515 6.54146634615384  6.39393939393939 6.46153846153846  5.86363636363636 6.46153846153846  C 5.21212121212121 6.46153846153846  4.84848484848485 6.49519230769231  4.77272727272727 6.5625  C 4.75757575757576 6.57932692307692  4.74242424242424 6.60456730769231  4.72727272727273 6.63822115384616  C 4.74242424242424 6.78966346153846  4.75757575757576 6.90324519230769  4.77272727272727 6.97896634615384  C 4.78787878787879 7.00420673076923  4.81628787878788 7.03155048076923  4.85795454545455 7.06099759615384  C 4.89962121212121 7.09044471153846  4.9280303030303 7.13461538461538  4.94318181818182 7.19350961538461  C 4.95833333333333 7.22716346153846  4.98674242424242 7.31340144230769  5.02840909090909 7.45222355769231  C 5.07007575757576 7.59104567307692  5.09659090909091 7.67728365384615  5.10795454545455 7.7109375  C 5.11931818181818 7.74459134615384  5.14772727272727 7.81610576923077  5.19318181818182 7.92548076923077  C 5.23863636363636 8.03485576923077  5.27083333333333 8.10637019230769  5.28977272727273 8.14002403846154  C 5.30871212121212 8.17367788461538  5.34280303030303 8.23257211538461  5.39204545454545 8.31670673076923  C 5.44128787878788 8.40084134615384  5.48674242424242 8.45763221153846  5.52840909090909 8.48707932692308  C 5.57007575757576 8.51652644230769  5.62310606060606 8.55649038461539  5.6875 8.60697115384616  C 5.75189393939394 8.65745192307692  5.81818181818182 8.69110576923077  5.88636363636364 8.70793269230769  C 5.95454545454545 8.72475961538461  6.03219696969697 8.74158653846154  6.11931818181818 8.75841346153846  C 6.20643939393939 8.77524038461538  6.29924242424242 8.78365384615384  6.39772727272727 8.78365384615384  C 6.67045454545455 8.78365384615384  6.89393939393939 8.73106971153846  7.06818181818182 8.62590144230769  C 7.24242424242424 8.52073317307692  7.3655303030303 8.39453125  7.4375 8.24729567307692  C 7.5094696969697 8.10006009615384  7.56439393939394 7.95492788461538  7.60227272727273 7.81189903846154  C 7.64015151515152 7.66887019230769  7.68371212121212 7.54477163461538  7.73295454545455 7.43960336538461  C 7.78219696969697 7.33443509615384  7.84848484848485 7.28185096153846  7.93181818181818 7.28185096153846  L 8.06818181818182 7.28185096153846  C 8.15151515151515 7.28185096153846  8.21780303030303 7.33443509615384  8.26704545454546 7.43960336538461  C 8.31628787878788 7.54477163461538  8.35984848484849 7.66887019230769  8.39772727272727 7.81189903846154  C 8.43560606060606 7.95492788461538  8.4905303030303 8.10006009615384  8.5625 8.24729567307692  C 8.6344696969697 8.39453125  8.75757575757576 8.52073317307692  8.93181818181818 8.62590144230769  C 9.10606060606061 8.73106971153846  9.32954545454546 8.78365384615384  9.60227272727273 8.78365384615384  C 9.70075757575758 8.78365384615384  9.79356060606061 8.77524038461538  9.88068181818182 8.75841346153846  C 9.96780303030303 8.74158653846154  10.0454545454545 8.72475961538461  10.1136363636364 8.70793269230769  C 10.1818181818182 8.69110576923077  10.2481060606061 8.65745192307692  10.3125 8.60697115384616  C 10.3768939393939 8.55649038461539  10.4299242424242 8.51652644230769  10.4715909090909 8.48707932692308  C 10.5132575757576 8.45763221153846  10.5587121212121 8.40084134615384  10.6079545454545 8.31670673076923  C 10.657196969697 8.23257211538461  10.6912878787879 8.17367788461538  10.7102272727273 8.14002403846154  C 10.7291666666667 8.10637019230769  10.7613636363636 8.03485576923077  10.8068181818182 7.92548076923077  C 10.8522727272727 7.81610576923077  10.8806818181818 7.74459134615384  10.8920454545455 7.7109375  C 10.9034090909091 7.67728365384615  10.9299242424242 7.59104567307692  10.9715909090909 7.45222355769231  C 11.0132575757576 7.31340144230769  11.0416666666667 7.22716346153846  11.0568181818182 7.19350961538461  C 11.0719696969697 7.13461538461538  11.1003787878788 7.09044471153846  11.1420454545455 7.06099759615384  C 11.1837121212121 7.03155048076923  11.2121212121212 7.00420673076923  11.2272727272727 6.97896634615384  Z M 15.9090909090909 15.8572716346154  C 15.969696969697 16.4588341346154  16 17.0835336538462  16 17.7313701923077  C 16 18.7493990384615  15.7234848484848 19.5486778846154  15.1704545454545 20.1292067307692  C 14.6174242424242 20.7097355769231  13.8825757575758 21  12.9659090909091 21  L 3.03409090909091 21  C 2.11742424242424 21  1.38257575757576 20.7097355769231  0.829545454545455 20.1292067307692  C 0.276515151515151 19.5486778846154  0 18.7493990384615  0 17.7313701923077  C 0 17.2181490384615  0.0170454545454545 16.7217548076923  0.0511363636363636 16.2421875  C 0.0852272727272727 15.7626201923077  0.15719696969697 15.2346754807692  0.267045454545455 14.6583533653846  C 0.376893939393939 14.08203125  0.518939393939394 13.5625  0.693181818181818 13.0997596153846  C 0.867424242424243 12.6370192307692  1.10795454545455 12.2016225961538  1.41477272727273 11.7935697115385  C 1.72159090909091 11.3855168269231  2.07575757575758 11.0721153846154  2.47727272727273 10.8533653846154  L 1.45454545454545 8.07692307692308  L 3.88636363636364 8.07692307692308  C 3.71969696969697 7.53846153846154  3.63636363636364 7  3.63636363636364 6.46153846153846  C 3.63636363636364 6.36057692307692  3.64393939393939 6.22596153846154  3.65909090909091 6.05769230769231  C 2.18939393939394 5.72115384615384  1.45454545454545 5.31730769230769  1.45454545454545 4.84615384615384  C 1.45454545454545 4.36658653846154  2.25 3.95012019230769  3.84090909090909 3.59675480769231  C 3.96969696969697 3.07512019230769  4.16477272727273 2.51141826923077  4.42613636363636 1.90564903846154  C 4.6875 1.29987980769231  4.95454545454545 0.8203125  5.22727272727273 0.466947115384614  C 5.46969696969697 0.15564903846154  5.75757575757576 0  6.09090909090909 0  C 6.31818181818182 0  6.63636363636364 0.130408653846156  7.04545454545455 0.391225961538462  C 7.45454545454545 0.652043269230768  7.77272727272727 0.782451923076924  8 0.782451923076924  C 8.22727272727273 0.782451923076924  8.54545454545455 0.652043269230768  8.95454545454546 0.391225961538462  C 9.36363636363636 0.130408653846156  9.68181818181818 0  9.90909090909091 0  C 10.2424242424242 0  10.530303030303 0.15564903846154  10.7727272727273 0.466947115384614  C 11.0454545454545 0.8203125  11.3125 1.29987980769231  11.5738636363636 1.90564903846154  C 11.8352272727273 2.51141826923077  12.030303030303 3.07512019230769  12.1590909090909 3.59675480769231  C 13.75 3.95012019230769  14.5454545454545 4.36658653846154  14.5454545454545 4.84615384615384  C 14.5454545454545 5.31730769230769  13.8106060606061 5.72115384615384  12.3409090909091 6.05769230769231  C 12.3939393939394 6.73918269230769  12.3181818181818 7.41225961538461  12.1136363636364 8.07692307692308  L 14.5454545454545 8.07692307692308  L 13.6136363636364 10.9164663461538  C 14.0909090909091 11.1941105769231  14.4981060606061 11.6000600961538  14.8352272727273 12.1343149038462  C 15.1723484848485 12.6685697115385  15.4204545454545 13.2722355769231  15.5795454545455 13.9453125  C 15.7386363636364 14.6183894230769  15.8484848484848 15.2557091346154  15.9090909090909 15.8572716346154  Z " fill-rule="nonzero" fill="#b02463" stroke="none" transform="matrix(1 0 0 1 1621 51 )" />
  </g>
</svg>