<?xml version="1.0" encoding="utf-8"?>
<svg version="1.1" xmlns:xlink="http://www.w3.org/1999/xlink" width="70px" height="7px" xmlns="http://www.w3.org/2000/svg">
  <g transform="matrix(1 0 0 1 -1850 -163 )">
    <path d="M 68.1640625 0.642578125  C 69.3880208333333 1.07096354166667  70 1.5859375  70 2.1875  L 70 4.8125  C 70 5.4140625  69.3880208333333 5.92903645833333  68.1640625 6.357421875  C 66.9401041666667 6.78580729166667  65.46875 7  63.75 7  L 6.25 7  C 4.53125 7  3.05989583333333 6.78580729166667  1.8359375 6.357421875  C 0.611979166666667 5.92903645833333  0 5.4140625  0 4.8125  L 0 2.1875  C 0 1.5859375  0.611979166666667 1.07096354166667  1.8359375 0.642578125  C 3.05989583333333 0.214192708333334  4.53125 0  6.25 0  L 63.75 0  C 65.46875 0  66.9401041666667 0.214192708333334  68.1640625 0.642578125  Z " fill-rule="nonzero" fill="#b02463" stroke="none" transform="matrix(1 0 0 1 1850 163 )" />
  </g>
</svg>