<?xml version="1.0" encoding="utf-8"?>
<svg version="1.1" xmlns:xlink="http://www.w3.org/1999/xlink" width="24px" height="16px" xmlns="http://www.w3.org/2000/svg">
  <g transform="matrix(1 0 0 1 -1850 -145 )">
    <path d="M 9.6 10  L 9.6 11.2  L 14.4 11.2  L 14.4 10  L 12.8 10  L 12.8 4.4  L 11.375 4.4  L 9.525 6.1125  L 10.4875 7.1125  C 10.8375 6.80416666666667  11.0666666666667 6.56666666666667  11.175 6.4  L 11.2 6.4  L 11.2 10  L 9.6 10  Z M 15.7375 6.225  C 15.9125 6.825  16 7.41666666666667  16 8  C 16 8.58333333333333  15.9125 9.175  15.7375 9.775  C 15.5625 10.375  15.3145833333333 10.9333333333333  14.99375 11.45  C 14.6729166666667 11.9666666666667  14.25 12.3875  13.725 12.7125  C 13.2 13.0375  12.625 13.2  12 13.2  C 11.375 13.2  10.8 13.0375  10.275 12.7125  C 9.75 12.3875  9.32708333333333 11.9666666666667  9.00625 11.45  C 8.68541666666667 10.9333333333333  8.4375 10.375  8.2625 9.775  C 8.0875 9.175  8 8.58333333333333  8 8  C 8 7.41666666666667  8.0875 6.825  8.2625 6.225  C 8.4375 5.625  8.68541666666667 5.06666666666667  9.00625 4.55  C 9.32708333333333 4.03333333333333  9.75 3.6125  10.275 3.2875  C 10.8 2.9625  11.375 2.8  12 2.8  C 12.625 2.8  13.2 2.9625  13.725 3.2875  C 14.25 3.6125  14.6729166666667 4.03333333333333  14.99375 4.55  C 15.3145833333333 5.06666666666667  15.5625 5.625  15.7375 6.225  Z M 20.1375 12.1375  C 20.7625 11.5125  21.5166666666667 11.2  22.4 11.2  L 22.4 4.8  C 21.5166666666667 4.8  20.7625 4.4875  20.1375 3.8625  C 19.5125 3.2375  19.2 2.48333333333333  19.2 1.6  L 4.8 1.6  C 4.8 2.48333333333333  4.4875 3.2375  3.8625 3.8625  C 3.2375 4.4875  2.48333333333333 4.8  1.6 4.8  L 1.6 11.2  C 2.48333333333333 11.2  3.2375 11.5125  3.8625 12.1375  C 4.4875 12.7625  4.8 13.5166666666667  4.8 14.4  L 19.2 14.4  C 19.2 13.5166666666667  19.5125 12.7625  20.1375 12.1375  Z M 23.7625 0.237500000000001  C 23.9208333333333 0.395833333333332  24 0.583333333333332  24 0.800000000000001  L 24 15.2  C 24 15.4166666666667  23.9208333333333 15.6041666666667  23.7625 15.7625  C 23.6041666666667 15.9208333333333  23.4166666666667 16  23.2 16  L 0.8 16  C 0.583333333333333 16  0.395833333333333 15.9208333333333  0.2375 15.7625  C 0.0791666666666667 15.6041666666667  0 15.4166666666667  0 15.2  L 0 0.800000000000001  C 0 0.583333333333332  0.0791666666666667 0.395833333333332  0.2375 0.237500000000001  C 0.395833333333333 0.0791666666666657  0.583333333333333 0  0.8 0  L 23.2 0  C 23.4166666666667 0  23.6041666666667 0.0791666666666657  23.7625 0.237500000000001  Z " fill-rule="nonzero" fill="#b02463" stroke="none" transform="matrix(1 0 0 1 1850 145 )" />
  </g>
</svg>